<?xml version="1.0" encoding="utf-8"?>
<!-- Generator: Adobe Illustrator 26.0.0, SVG Export Plug-In . SVG Version: 6.00 Build 0)  -->
<svg version="1.1" id="레이어_1" xmlns="http://www.w3.org/2000/svg" xmlns:xlink="http://www.w3.org/1999/xlink" x="0px"
	 y="0px" viewBox="0 0 272 271.9" style="enable-background:new 0 0 272 271.9;" xml:space="preserve">
<style type="text/css">
	.st0{fill:#1E1E1E;}
	.st1{fill:#FAE100;}
	.st2{fill:#000111;}
</style>
<rect class="st0" width="271.9" height="271.9"/>
<g id="레이어_2_00000176745967307645518930000014616591402233869710_">
	<g id="레이어_1-2">
		<path class="st1" d="M237.4,107c-3.3-5.7-7.6-10.5-12.8-14.7c-5.4-4.1-11.4-7.3-17.9-8.9l-51.6-13.9c-6.4-1.8-13.3-2.2-19.9-1.3
			c-6.4,0.9-12.7,3.1-18.3,6.3c-5.7,3.3-10.7,7.6-14.7,12.8c-4.1,5.3-7.3,11.4-9,17.9l-24,89.9c-1.6,5.7,1.9,11.5,7.6,13.1
			c2.6,0.7,5.6,0.3,8-1.1c2.5-1.4,4.2-3.7,5-6.4l24.3-90.1c1.1-3.7,2.7-7.3,5.1-10.3c4.6-6,11.5-10,19.1-11.1
			c3.9-0.5,7.8-0.2,11.6,0.7l51.6,13.9c3.7,1.1,7.3,2.7,10.3,5.1c3.1,2.3,5.5,5.3,7.4,8.5c1.9,3.3,3.1,6.9,3.6,10.7
			c0.5,3.9,0.2,7.7-0.7,11.4l-24.3,90.1c-1.6,5.7,1.8,11.5,7.5,13.1s11.5-1.8,13.1-7.5l24.1-90.2c1.8-6.4,2.2-13.3,1.3-19.9
			C242.7,118.9,240.6,112.6,237.4,107z"/>
		<path class="st1" d="M211.5,123c-1.5-2.5-3.5-4.9-5.8-6.7c-2.4-2-5.3-3.4-8.2-4.1L147,98.6c-3.1-0.8-6.1-1.1-9.2-0.5
			c-6,0.8-11.4,4-15.2,8.6c-2,2.4-3.4,5.3-4.2,8.2l-23.7,87.9c-1.5,5.6,1.8,11.3,7.4,12.8s11.3-1.8,12.8-7.4l23.7-87.8
			c0.4-1.6,1.5-2.1,3.1-1.8l50.5,13.5c1.6,0.4,2.1,1.5,1.8,3.1l-23.7,87.9c-1.5,5.5,1.8,11.3,7.3,12.8s11.3-1.8,12.8-7.3l23.7-87.9
			c0.8-3.1,1.1-6.1,0.5-9.2C214.1,128.5,213.1,125.6,211.5,123z"/>
		<path class="st1" d="M59.4,28.7c-0.3-1.3-1.6-2.2-3.1-2.2H30.5c-1.7,0-3.1,1.4-3.1,3.1s1.4,3.1,3.1,3.1l0,0h9.4v28.2
			c0,1.7,1.5,3.2,3.2,3.2s3.2-1.5,3.2-3.2V32.8h10c1.7,0,3.1-1.4,3.1-3.1C59.4,29.3,59.4,29,59.4,28.7z"/>
		<path class="st1" d="M91,49.5c0.1-2.2-0.2-4.4-0.9-6.5c-0.6-1.7-1.5-3.2-2.7-4.5c-1.2-1.2-2.6-2.1-4.3-2.6
			c-1.8-0.6-3.7-0.9-5.6-0.8c-1.3,0-2.6,0.2-3.9,0.7c-1.2,0.4-2.4,1.1-3.5,1.8l-0.3,0.2v-8c-0.1-1.7-1.6-3.1-3.3-3
			c-1.6,0.1-2.8,1.4-3,3v31.5c0.1,1.6,1.5,3,3.2,2.8c1.6-0.1,2.7-1.3,2.8-2.8V49.5c0-1.3,0.2-2.6,0.7-3.9c0.4-1.1,1.1-2,1.9-2.7
			c0.7-0.7,1.6-1.2,2.5-1.6c0.8-0.3,1.8-0.5,2.7-0.5c1.2,0,2.2,0.2,3.3,0.7c0.9,0.4,1.8,1.2,2.4,1.9c0.7,0.7,1.2,1.7,1.5,2.7
			s0.5,2.1,0.4,3.3v11.7c0.1,1.6,1.5,3,3.2,2.8c1.6-0.1,2.7-1.3,2.8-2.8L91,49.5L91,49.5z"/>
		<path class="st1" d="M121.6,51.6c-0.3-0.2-0.7-0.2-1.2-0.2c-1.2,0-2.1,0.6-2.5,1.6c-1.3,3.6-4.7,5.9-8.5,5.8
			c-2.1,0.1-4-0.7-5.6-2.1l-0.2-0.2l0.2-0.2l16-12.7c1.3-0.8,1.6-2.6,0.7-4c0,0,0,0,0-0.1c-0.2-0.2-0.3-0.4-0.5-0.6
			c-0.5-0.5-1.1-1.1-1.6-1.6c-0.4-0.3-0.8-0.7-1.3-1.1c-0.6-0.4-1.2-0.7-1.9-1.1c-0.8-0.3-1.7-0.6-2.5-0.7c-1.2-0.2-2.2-0.3-3.4-0.3
			c-2,0-4,0.3-5.8,1.2c-1.7,0.7-3.3,1.8-4.6,3.2c-1.3,1.4-2.3,3.1-3.1,4.9c-0.7,1.9-1.1,4-1.1,5.9c0,2.1,0.3,4.1,1.1,6.1
			c0.7,1.8,1.7,3.5,3.1,4.9s2.8,2.5,4.5,3.2c4.7,1.9,10.1,1.4,14.4-1.4c2.3-1.6,4.1-3.9,5.1-6.5l0,0l0.1-0.2
			C123.7,54,123.1,52.3,121.6,51.6L121.6,51.6z M100.8,50.8v-0.4c0-0.3-0.1-0.7-0.1-1.1c0-1.2,0.2-2.3,0.6-3.5
			c0.3-1.2,0.9-2.1,1.7-3s1.6-1.6,2.6-2c1.2-0.5,2.3-0.7,3.6-0.7c0.7,0,1.5,0,2.1,0.1s1.4,0.2,2,0.6l0.3,0.2l-0.2,0.2L100.8,50.8z"
			/>
	</g>
</g>
<path class="st2" d="M535,405"/>
</svg>
