<?xml version="1.0" encoding="utf-8"?>
<!-- Generator: Adobe Illustrator 26.0.0, SVG Export Plug-In . SVG Version: 6.00 Build 0)  -->
<svg version="1.1" id="레이어_1" xmlns="http://www.w3.org/2000/svg" xmlns:xlink="http://www.w3.org/1999/xlink" x="0px"
	 y="0px" viewBox="0 0 300 300" style="enable-background:new 0 0 300 300;" xml:space="preserve">
<style type="text/css">
	.st0{fill:#FAE114;}
	.st1{opacity:0.22;}
	.st2{fill:#302218;}
	.st3{fill:none;stroke:#302218;stroke-width:8;stroke-miterlimit:10;}
</style>
<rect class="st0" width="300" height="300"/>
<rect x="0" y="290" class="st1" width="10" height="10"/>
<rect x="290" y="290" class="st1" width="10" height="10"/>
<rect x="290" class="st1" width="10" height="10"/>
<rect class="st1" width="10" height="10"/>
<path class="st2" d="M87.7,64.6l-0.2,0C74.8,65,64.8,75.3,64.8,87.9l0.1,123.4c0,13.1,10.8,23.6,23.8,23.2h0
	c12.6-0.3,22.7-10.6,22.7-23.2l0.1-123.4C111.5,74.9,100.8,64.3,87.7,64.6z M105.2,225.3c-0.1,3.6-5.8,3.6-5.7,0
	c0-0.3,0-0.6,0.1-0.8c-0.1,0-0.2,0-0.3,0c0.4,1.6-0.5,3.6-2.7,3.6c-1.9,0.1-4.1-0.2-6.5-0.8c-3.3,0.9-6.6,0.8-8.9-1.3
	c-8.1-1.5-14.4-6.7-10.1-15.4c0.3-0.6,0.8-1,1.5-1.2c-0.6-4.6,1-9.3,5.2-12.4c6.6-4.8,15.9-2.1,21.1,3.4c2.2,2.3,3.6,5.1,4.2,8.1
	c0.2,0.2,0.5,0.3,0.6,0.6c1,0.3,1.9,1.2,1.9,2.6v1.9c1,0.4,1.8,1.3,1.8,2.6C107.3,219.2,105.3,222,105.2,225.3z"/>
<path class="st2" d="M188,88l0.1,123.4c0,13.1,10.8,23.6,23.8,23.2h0c12.6-0.3,22.7-10.6,22.7-23.2L234.8,88
	c0-13.1-10.8-23.6-23.8-23.3l-0.2,0C198.1,65,188,75.3,188,88z"/>
<path class="st2" d="M226.1,226.3L226.1,226.3c-9.2,9.2-24.1,9.2-33.2,0L73,106.4c-9.2-9.2-9.2-24.1,0-33.2l0,0
	c9.2-9.2,24.1-9.2,33.2,0l119.9,119.9C235.3,202.3,235.3,217.1,226.1,226.3z"/>
<circle class="st3" cx="88.1" cy="212.1" r="18.9"/>
<ellipse class="st2" cx="88.2" cy="212" rx="9.8" ry="10"/>
</svg>
