<?xml version="1.0" encoding="utf-8"?>
<!-- Generator: Adobe Illustrator 26.0.0, SVG Export Plug-In . SVG Version: 6.00 Build 0)  -->
<svg version="1.1" id="레이어_1" xmlns="http://www.w3.org/2000/svg" xmlns:xlink="http://www.w3.org/1999/xlink" x="0px"
	 y="0px" viewBox="0 0 300 300" style="enable-background:new 0 0 300 300;" xml:space="preserve">
<style type="text/css">
	.st0{fill:#FAE114;}
	.st1{opacity:0.22;}
	.st2{fill:none;stroke:#302218;stroke-width:10;stroke-miterlimit:10;}
	.st3{fill:#302218;}
</style>
<rect class="st0" width="300" height="300"/>
<rect x="0" y="290" class="st1" width="10" height="10"/>
<rect x="290" y="290" class="st1" width="10" height="10"/>
<rect x="290" class="st1" width="10" height="10"/>
<rect class="st1" width="10" height="10"/>
<ellipse class="st2" cx="99.6" cy="200.1" rx="29.9" ry="29.9"/>
<path class="st3" d="M188.2,87.8l0.1,123.4c0,13.1,10.9,23.6,24.1,23.2h0c12.8-0.3,22.9-10.6,23-23.2l0.1-123.5
	c0-13.1-10.9-23.6-24.1-23.3l-0.2,0C198.4,64.9,188.2,75.2,188.2,87.8z"/>
<path class="st3" d="M227.3,226.6L227.3,226.6c-9.3,9.2-24.3,9.2-33.6,0L72.5,106c-9.3-9.2-9.3-24.2,0-33.5l0,0
	c9.3-9.2,24.3-9.2,33.6,0l121.2,120.7C236.6,202.4,236.6,217.4,227.3,226.6z"/>
<ellipse class="st3" cx="100" cy="199.9" rx="14.7" ry="14.5"/>
</svg>
