<?xml version="1.0" encoding="utf-8"?>
<!-- Generator: Adobe Illustrator 26.0.0, SVG Export Plug-In . SVG Version: 6.00 Build 0)  -->
<svg version="1.1" id="레이어_1" xmlns="http://www.w3.org/2000/svg" xmlns:xlink="http://www.w3.org/1999/xlink" x="0px"
	 y="0px" viewBox="0 0 300 300" style="enable-background:new 0 0 300 300;" xml:space="preserve">
<style type="text/css">
	.st0{fill:#FAE114;}
	.st1{opacity:0.22;}
	.st2{fill:#302218;}
	.st3{fill:#2E2E2E;}
	.st4{fill:none;stroke:#302218;stroke-width:14;stroke-miterlimit:10;}
</style>
<rect class="st0" width="300" height="300"/>
<rect x="0" y="290" class="st1" width="10" height="10"/>
<rect x="290" y="290" class="st1" width="10" height="10"/>
<rect x="290" class="st1" width="10" height="10"/>
<rect class="st1" width="10" height="10"/>
<g>
	<path class="st2" d="M233.1,91.4c0.6-0.4,1.3-0.5,2.1-0.4c1.2-5.3-2.3-12-6.2-15.2c-4.2-3.4-10-5.1-15.4-5.3
		c-8,3.1-8.2,14.5-8.2,22.7c1.4-0.2,2.8,0.5,3.4,2.4c0.2,0.6,0.3,1.2,0.4,1.8c2.8,1.3,6.1,2,9.2,2.6c0.1,0,0.2,0,0.4,0
		c1.6-0.2,3.5-0.5,5.4-0.9c0.9-0.7,1.7-1.5,2.5-2.3C228.6,94.9,230.7,93,233.1,91.4z"/>
	<path class="st2" d="M235.2,112.1c-0.1,0-0.2,0-0.3,0.1c0,0,0,0-0.1,0c-1.4,1.4-3.1,2.7-5,3.5c-5,2.3-10.7,2.1-16.1,1.9
		c-5.7-0.2-11.3-1.6-13.8-7.3c-0.1-0.3-0.2-0.5-0.3-0.8v82.3l-83.9-102c-2.3-3-4.6-5.9-6.8-8.6c-2.2-2.8-4.4-5-6.5-6.7
		c-2.1-1.7-4.6-3.1-7.3-4.1c-2.8-1-6.1-1.5-10.1-1.5c-5,0-9.6,1.1-14,3.4c-4.3,2.2-7.4,5.1-9.3,8.7c-1.6,3.2-2.3,7.7-2.3,13.3v133.5
		c0,6.5,1.9,11.5,5.6,14.9c3.7,3.4,8.7,5.1,14.8,5.1c6,0,10.9-1.7,14.7-5.1c3.8-3.4,5.7-8.4,5.7-15V126.3l81.8,100.8
		c2.4,2.8,4.7,5.4,7.1,8.1c2.3,2.6,4.9,4.9,7.6,6.9c2.7,2,5.7,3.4,8.8,4.3c3.1,0.9,6.7,1.4,10.6,1.4c15.7,0,23.5-7.6,23.5-22.8
		V112.1C238.4,113.4,236.5,113.2,235.2,112.1z"/>
</g>
<ellipse class="st3" cx="219.5" cy="86.7" rx="19.5" ry="19.2"/>
<ellipse class="st2" cx="219.3" cy="87.2" rx="20.3" ry="20"/>
<circle class="st4" cx="219.1" cy="87" r="33.9"/>
</svg>
